<svg width="128" height="128" viewBox="0 0 128 128" fill="none" xmlns="http://www.w3.org/2000/svg">
<path d="M89.234 5.85603H81.85L89.529 14.189V18.156H73.713V13.511H81.391L73.713 5.17803V1.20703H89.234V5.85603ZM70.577 5.85603H63.193L70.872 14.189V18.156H55.055V13.511H62.734L55.055 5.17803V1.20703H70.577V5.85603ZM52.103 6.04603H44.135V13.317H52.103V18.156H38.471V1.20703H52.103V6.04603Z" fill="#131313"/>
<path d="M27.613 116.706L19.516 25.8929H108.483L100.379 116.691L63.945 126.793L27.613 116.706Z" fill="#1572B6"/>
<path d="M64.001 119.072L93.44 110.91L100.366 33.319H64.001V119.072Z" fill="#33A9DC"/>
<path d="M64 66.22H78.738L79.757 54.815H64V43.677H91.929L91.662 46.665L88.925 77.357H64V66.22Z" fill="white"/>
<path d="M64.067 95.146L64.018 95.16L51.614 91.81L50.82 82.927H39.641L41.202 100.415L64.016 106.748L64.068 106.733V95.146H64.067Z" fill="#EBEBEB"/>
<path d="M77.792 76.886L76.45 91.802L64.028 95.155V106.743L86.861 100.415L87.029 98.533L88.967 76.886H77.792Z" fill="white"/>
<path d="M64.039 43.677V54.814H37.136L36.912 52.311L36.405 46.665L36.138 43.677H64.039ZM64 66.221V77.359H51.753L51.53 74.856L51.022 69.209L50.755 66.221H64Z" fill="#EBEBEB"/>
</svg>
