<svg width="128" height="128" viewBox="0 0 128 128" fill="none" xmlns="http://www.w3.org/2000/svg">
<path d="M53.2392 19.1845C53.2392 23.3225 49.8808 26.6809 45.7428 26.6809C41.6048 26.6809 38.2464 23.3225 38.2464 19.1845C38.2464 15.0465 41.6048 11.6881 45.7428 11.6881C49.8808 11.6881 53.2392 15.0465 53.2392 19.1845Z" fill="#F9F9F9"/>
<path d="M63.1944 4.27173C58.2567 4.29172 53.529 4.72151 49.371 5.44116C37.1319 7.59013 34.903 12.058 34.903 20.319V31.2337H63.834V34.8669H24.0483C15.6323 34.8669 8.27588 39.8645 5.97199 49.3699C3.31828 60.2647 3.17834 67.0764 5.97199 78.4359C8.021 86.9068 12.9236 92.9389 21.3346 92.9389H29.8455V78.4559C29.8455 69.0254 38.1215 60.7494 47.9417 60.7494H78.2271C86.2682 60.7494 93.8845 54.1876 93.8845 46.2065V20.3789C93.8845 12.6277 86.0933 6.79051 78.2271 5.50114C73.2695 4.68153 68.117 4.31171 63.1844 4.3317L63.1944 4.27173ZM47.5469 13.0375C50.5355 13.0375 52.9743 15.4963 52.9743 18.5248C52.9743 21.5334 50.5355 23.9522 47.5469 23.9522C44.5384 23.9522 42.0995 21.5334 42.0995 18.5248C42.0995 15.5013 44.5184 13.0375 47.5469 13.0375Z" fill="#4586B9"/>
<path d="M88.2423 109.141C88.2423 113.279 84.8839 116.637 80.7459 116.637C76.5879 116.637 73.2295 113.279 73.2295 109.141C73.2295 105.003 76.5879 101.645 80.7459 101.645C84.8839 101.645 88.2423 105.003 88.2423 109.141Z" fill="#F9F9F9"/>
<path d="M98.0025 34.8569V47.5658C98.0025 57.406 89.5516 64.5326 79.9263 64.5326H48.1816C40.2754 64.5326 33.7136 72.4188 33.7136 80.25V107.502C33.7136 115.253 40.5253 119.801 48.1816 122.025C57.3372 124.679 67.3124 125.188 78.2671 122.025C85.5486 119.936 92.7351 115.738 92.7351 107.502V96.5871H63.844V92.9539H107.223C115.619 92.9539 118.763 87.1367 121.691 78.4509C124.715 69.4902 124.56 60.8594 121.691 49.3849C119.602 41.0889 115.639 34.8819 107.223 34.8819L98.0025 34.8569ZM80.1062 103.874C83.0947 103.874 85.5336 106.292 85.5336 109.301C85.5336 112.31 83.1147 114.788 80.1062 114.788C77.0976 114.788 74.6588 112.31 74.6588 109.301C74.6588 106.292 77.0976 103.874 80.1062 103.874Z" fill="#FFE634"/>
</svg>
