<svg width="128" height="128" viewBox="0 0 128 128" fill="none" xmlns="http://www.w3.org/2000/svg">
<path d="M104.44 70.2881C100.923 70.2927 97.4526 71.0969 94.292 72.6401C93.3024 70.9979 92.5382 69.23 92.02 67.3841C91.7222 65.9371 91.6534 64.4524 91.816 62.9841C92.1579 61.3684 92.6014 59.7759 93.144 58.2161C93.124 58.0121 92.9 57.0481 90.648 57.0161C88.396 56.9841 86.456 57.4441 86.248 58.0401C85.8569 59.1287 85.5428 60.2434 85.308 61.3761C83.4442 65.9741 81.15 70.3857 78.456 74.5521C76.9467 72.0777 76.3259 69.1627 76.696 66.2881C77.0379 64.6724 77.4815 63.0799 78.024 61.5201C78.004 61.3161 77.78 60.3521 75.528 60.3201C73.276 60.2881 71.336 60.7481 71.128 61.3441C70.92 61.9401 70.656 63.3441 70.188 64.6801C69.72 66.0161 64.256 78.2241 62.824 81.3721C62.088 82.9721 61.452 84.2761 61.004 85.1561C60.9828 85.2132 60.956 85.2681 60.924 85.3201C60.524 86.076 60.312 86.4881 60.312 86.4881V86.5081C60.004 87.0601 59.676 87.5721 59.512 87.5721C59.226 86.4293 59.2397 85.232 59.552 84.0961C60.352 79.8601 62.312 73.2761 62.292 73.048C62.292 72.924 62.66 71.7801 61.024 71.1881C60.6446 71.0075 60.2185 70.949 59.8044 71.0206C59.3904 71.0923 59.0087 71.2905 58.712 71.5881C58.568 71.5881 58.468 71.9361 58.468 71.9361C58.468 71.9361 60.248 64.5321 55.072 64.5321C53.0564 64.9375 51.1422 65.7419 49.442 66.898C47.7418 68.0542 46.29 69.5386 45.172 71.2641C43.78 72.0201 40.816 73.6361 37.644 75.3761C36.444 76.0521 35.188 76.7281 34.024 77.3761C33.944 77.2961 33.86 77.1921 33.78 77.1121C27.48 70.4001 15.9 65.6641 16.4 56.6841C16.584 53.4121 17.708 44.8201 38.636 34.3841C55.86 25.8961 69.568 28.2481 71.94 33.4641C75.336 40.9121 64.596 54.7401 46.8 56.7441C44.8312 57.1435 42.7979 57.0953 40.8502 56.603C38.9026 56.1107 37.0905 55.187 35.548 53.9001C34.608 52.8761 34.464 52.8161 34.116 53.0201C33.544 53.3281 33.912 54.2481 34.116 54.7801C34.7949 56.0087 35.7132 57.0887 36.8165 57.9564C37.9199 58.8242 39.186 59.4619 40.54 59.8321C47.5409 61.3449 54.8402 60.6216 61.408 57.7641C72.208 53.5921 80.608 41.9921 78.144 32.2761C75.668 22.4161 59.304 19.1641 43.816 24.6761C34.115 27.9403 25.1513 33.0821 17.436 39.8081C8.904 47.788 7.556 54.7201 8.108 57.6281C10.108 67.9401 24.312 74.6481 29.996 79.6281C29.708 79.7921 29.444 79.9361 29.22 80.0561C26.376 81.4681 15.536 87.1361 12.82 93.1281C9.752 99.9281 13.312 104.788 15.664 105.444C19.208 106.292 22.9285 106.013 26.306 104.645C29.6836 103.277 32.5496 100.888 34.504 97.812C36.1682 95.2609 37.1912 92.3453 37.4858 89.3136C37.7804 86.2819 37.3379 83.2239 36.196 80.4001C36.1767 80.3544 36.1496 80.3124 36.116 80.2761L38.344 78.9681C39.796 78.1081 41.228 77.312 42.456 76.6561C41.6233 79.0578 41.1344 81.5653 41.004 84.104C40.7213 87.9951 41.9121 91.8503 44.34 94.9041C44.7094 95.2221 45.1383 95.4636 45.6018 95.6147C46.0653 95.7657 46.5541 95.8233 47.04 95.784C49.44 95.784 50.54 93.784 51.744 91.4081C53.216 88.5041 54.544 85.1281 54.544 85.1281C54.544 85.1281 52.888 94.2521 57.388 94.2521C59.024 94.2521 60.68 92.1241 61.42 91.0521V91.0721C61.42 91.0721 61.46 91.012 61.544 90.868L61.808 90.4401V90.4001C62.464 89.2561 63.936 86.6561 66.124 82.34C68.948 76.7761 71.668 69.8201 71.668 69.8201C71.9303 71.3488 72.2925 72.8586 72.752 74.34C73.4108 76.1358 74.1899 77.8851 75.084 79.576C74.428 80.496 74.02 81.0081 74.02 81.0081L74.04 81.0281C73.508 81.7241 72.936 82.4801 72.3 83.2161C70.4078 85.2964 68.6521 87.497 67.044 89.8041C66.8051 90.1916 66.7229 90.6556 66.8144 91.1016C66.9058 91.5475 67.1639 91.9418 67.536 92.2041C68.3781 92.6422 69.3378 92.8005 70.276 92.6561C71.6898 92.5762 73.08 92.2584 74.388 91.7161C75.652 91.2712 76.8446 90.6446 77.928 89.8561C79.0449 89.0823 79.944 88.0341 80.5387 86.8124C81.1335 85.5907 81.4039 84.2365 81.324 82.8801C81.1982 81.1714 80.7617 79.5 80.036 77.9481C80.24 77.6601 80.436 77.376 80.628 77.0881C82.9021 73.6936 84.9518 70.154 86.764 66.4921C87.0263 68.0207 87.3885 69.5306 87.848 71.0121C88.3914 72.5639 89.0603 74.0688 89.848 75.5121C87.2318 77.5249 85.1711 80.1707 83.86 83.2001C82.572 86.924 83.572 88.6001 85.46 88.9881C86.4931 89.0593 87.5261 88.8477 88.448 88.3761C89.8035 87.9306 91.0805 87.2745 92.232 86.4321C93.4462 85.7155 94.4632 84.7082 95.1915 83.501C95.9197 82.2937 96.3364 80.9243 96.404 79.5161C96.3132 78.1103 95.9958 76.7285 95.464 75.4241C98.9164 74.0753 102.66 73.6453 106.328 74.1761C116.064 75.3201 117.988 81.3961 117.62 83.9561C117.447 84.8636 117.083 85.7237 116.55 86.4785C116.017 87.2333 115.329 87.8653 114.532 88.3321C113.856 88.7601 113.632 88.9041 113.692 89.2121C113.772 89.6641 114.092 89.6401 114.672 89.5601C116.139 89.104 117.434 88.2138 118.385 87.007C119.336 85.8002 119.899 84.3334 120 82.8001C120.308 76.8001 114.58 70.2201 104.452 70.2801L104.44 70.2881ZM29.32 95.6001C26.088 99.12 21.588 100.448 19.644 99.3241C17.556 98.1241 18.376 92.924 22.344 89.1961C24.6978 87.0772 27.2419 85.1799 29.944 83.5281C30.416 83.2401 31.112 82.8321 31.944 82.3281L32.168 82.2041L32.66 81.8961C33.3689 84.2712 33.4332 86.7922 32.8462 89.2005C32.2593 91.6087 31.0423 93.8174 29.32 95.6001ZM52.844 79.6001C51.72 82.3401 49.368 89.3601 47.936 88.9681C46.708 88.6401 45.936 83.3201 47.692 78.0641C48.5786 75.5339 49.8701 73.1644 51.516 71.048C53.276 69.084 55.22 68.4281 55.688 69.2281C55.261 72.8076 54.3025 76.3034 52.844 79.6001ZM72.256 88.8881C71.784 89.1321 71.336 89.2881 71.132 89.1761C70.988 89.0961 71.336 88.7761 71.336 88.7761C71.336 88.7761 73.772 86.1561 74.732 84.9721C75.284 84.2761 75.932 83.4601 76.636 82.5361V82.8001C76.636 85.9281 73.608 88.0361 72.26 88.8961L72.256 88.8881ZM87.232 85.4721C86.884 85.2281 86.944 84.4081 88.112 81.8521C88.9241 80.2105 90.0587 78.7494 91.448 77.5561C91.661 78.1615 91.7718 78.7982 91.776 79.4401C91.7918 80.8062 91.3549 82.1392 90.5337 83.231C89.7124 84.3229 88.5529 85.1123 87.236 85.4761L87.232 85.4721Z" fill="#CD6799"/>
</svg>
