<svg width="128" height="128" viewBox="0 0 128 128" fill="none" xmlns="http://www.w3.org/2000/svg">
<path d="M127.963 0H0.0375C0.0167893 0 0 0.0167893 0 0.0375V127.963C0 127.983 0.0167893 128 0.0375 128H127.963C127.983 128 128 127.983 128 127.963V0.0375C128 0.0167893 127.983 0 127.963 0Z" fill="#F7DF1E"/>
<path d="M81 92.5C83.5 96.75 87 99.75 92.75 99.75C97.75 99.75 101 97.25 101 93.75C101 89.75 97.75 88.25 92.25 85.75L89.25 84.5C80.5 80.75 74.75 76.25 74.75 66.5C74.75 57.5 81.5 50.5 92.25 50.5C100 50.5 105.5 53.25 109.25 60.25L100 66.25C98 62.5 95.75 61 92.25 61C88.75 61 86.5 63.25 86.5 66.25C86.5 69.75 88.75 71.25 94 73.5L97 74.75C107.25 79.25 113 83.5 113 93.75C113 104.5 104.5 110.5 93 110.5C81.75 110.5 74.5 105.25 71 98.25L81 92.5ZM38.5 93.5C40.5 96.75 42 99.75 46.25 99.75C50.25 99.75 52.75 98.25 52.75 92.25V50.75H64.75V91.75C64.75 104.25 57.5 109.75 46.75 109.75C37 109.75 31.5 104.75 28.75 98.75L38.5 93.5Z" fill="black"/>
</svg>
