<svg width="128" height="128" viewBox="0 0 128 128" fill="none" xmlns="http://www.w3.org/2000/svg">
<path d="M9.53101 112.586H13.692C15.588 112.586 16.965 112.856 17.821 113.396C18.678 113.936 19.106 114.794 19.106 115.971C19.106 116.77 18.918 117.425 18.543 117.937C18.168 118.449 17.669 118.757 17.047 118.861V118.952C17.895 119.141 18.506 119.495 18.881 120.013C19.256 120.531 19.444 121.22 19.444 122.08C19.444 123.3 19.004 124.251 18.122 124.934C17.241 125.617 16.044 125.958 14.532 125.958H9.53101V112.586ZM12.366 117.882H14.012C14.78 117.882 15.337 117.763 15.681 117.526C16.026 117.288 16.198 116.895 16.198 116.346C16.198 115.834 16.011 115.467 15.636 115.244C15.261 115.021 14.668 114.91 13.857 114.91H12.366V117.882ZM12.366 120.132V123.617H14.214C14.994 123.617 15.57 123.468 15.943 123.169C16.316 122.87 16.501 122.413 16.501 121.797C16.501 120.688 15.708 120.132 14.123 120.132H12.366ZM34.252 119.254C34.252 121.467 33.703 123.169 32.606 124.358C31.509 125.547 29.936 126.142 27.887 126.142C25.838 126.142 24.265 125.547 23.168 124.358C22.07 123.169 21.522 121.462 21.522 119.236C21.522 117.01 22.072 115.311 23.173 114.137C24.274 112.963 25.851 112.376 27.906 112.376C29.961 112.376 31.532 112.968 32.621 114.15C33.708 115.333 34.252 117.035 34.252 119.254ZM24.494 119.254C24.494 120.748 24.777 121.873 25.345 122.629C25.912 123.385 26.759 123.763 27.887 123.763C30.149 123.763 31.28 122.26 31.28 119.254C31.28 116.242 30.155 114.736 27.905 114.736C26.777 114.736 25.926 115.115 25.353 115.875C24.78 116.635 24.494 117.76 24.494 119.254ZM49.161 119.254C49.161 121.467 48.612 123.169 47.515 124.358C46.418 125.547 44.845 126.142 42.796 126.142C40.747 126.142 39.174 125.547 38.077 124.358C36.979 123.169 36.431 121.462 36.431 119.236C36.431 117.01 36.981 115.311 38.082 114.137C39.183 112.963 40.76 112.376 42.815 112.376C44.87 112.376 46.441 112.968 47.53 114.15C48.616 115.333 49.161 117.035 49.161 119.254ZM39.402 119.254C39.402 120.748 39.685 121.873 40.253 122.629C40.82 123.385 41.667 123.763 42.795 123.763C45.057 123.763 46.188 122.26 46.188 119.254C46.188 116.242 45.063 114.736 42.813 114.736C41.685 114.736 40.834 115.115 40.261 115.875C39.688 116.635 39.402 117.76 39.402 119.254ZM57.09 125.958H54.255V114.946H50.624V112.586H60.721V114.946H57.09V125.958ZM70.671 122.245C70.671 123.453 70.237 124.404 69.368 125.099C68.499 125.794 67.29 126.142 65.742 126.142C64.315 126.142 63.053 125.873 61.956 125.337V122.703C62.858 123.105 63.622 123.389 64.247 123.554C64.872 123.719 65.443 123.801 65.962 123.801C66.584 123.801 67.061 123.682 67.393 123.445C67.726 123.207 67.892 122.854 67.892 122.384C67.892 122.122 67.819 121.889 67.673 121.684C67.527 121.48 67.312 121.283 67.028 121.094C66.744 120.905 66.167 120.603 65.295 120.189C64.478 119.805 63.865 119.436 63.457 119.082C63.048 118.728 62.722 118.317 62.478 117.848C62.234 117.378 62.112 116.829 62.112 116.202C62.112 115.019 62.513 114.089 63.315 113.412C64.117 112.735 65.225 112.397 66.64 112.397C67.335 112.397 67.998 112.479 68.629 112.644C69.26 112.809 69.92 113.04 70.609 113.339L69.694 115.543C68.981 115.251 68.391 115.046 67.924 114.93C67.457 114.814 66.999 114.756 66.548 114.756C66.011 114.756 65.6 114.881 65.313 115.131C65.026 115.381 64.883 115.707 64.883 116.11C64.883 116.36 64.941 116.578 65.057 116.764C65.173 116.95 65.357 117.13 65.61 117.304C65.863 117.478 66.462 117.79 67.407 118.242C68.657 118.84 69.514 119.439 69.977 120.039C70.44 120.639 70.671 121.373 70.671 122.245ZM78.254 125.958H75.419V114.946H71.788V112.586H81.885V114.946H78.254V125.958ZM86.778 120.827V125.958H83.943V112.586H87.839C89.656 112.586 91 112.917 91.872 113.578C92.744 114.24 93.18 115.245 93.18 116.592C93.18 117.379 92.964 118.078 92.531 118.691C92.098 119.304 91.485 119.784 90.693 120.131C92.705 123.137 94.016 125.079 94.626 125.957H91.48L88.288 120.826H86.778V120.827ZM86.778 118.522H87.693C88.589 118.522 89.251 118.373 89.678 118.074C90.105 117.775 90.318 117.305 90.318 116.665C90.318 116.031 90.1 115.58 89.664 115.311C89.228 115.043 88.553 114.909 87.638 114.909H86.778V118.522ZM104.494 125.958L103.524 122.775H98.649L97.679 125.958H94.624L99.343 112.532H102.809L107.547 125.958H104.494ZM102.847 120.397C101.951 117.513 101.446 115.882 101.333 115.504C101.22 115.126 101.14 114.827 101.091 114.608C100.89 115.388 100.314 117.318 99.362 120.397H102.847ZM118.469 116.757C118.469 118.196 118.019 119.297 117.12 120.058C116.221 120.821 114.942 121.202 113.283 121.202H112.067V125.958H109.232V112.586H113.503C115.125 112.586 116.358 112.935 117.203 113.633C118.047 114.332 118.469 115.373 118.469 116.757ZM112.067 118.879H113C113.872 118.879 114.524 118.707 114.957 118.362C115.39 118.017 115.606 117.516 115.606 116.858C115.606 116.193 115.424 115.702 115.062 115.385C114.699 115.068 114.13 114.909 113.356 114.909H112.066V118.879H112.067ZM73.951 56.759C71.968 56.106 69.113 56 65.386 56H52V76H66.424C68.926 76 70.683 75.751 71.695 75.563C73.478 75.245 74.969 74.633 76.167 73.887C77.365 73.143 78.35 72.018 79.122 70.594C79.893 69.17 80.28 67.507 80.28 65.643C80.28 63.459 79.721 61.663 78.603 60.053C77.486 58.442 75.935 57.411 73.951 56.759ZM71.895 48.147C73.865 47.561 75.35 46.501 76.347 45.144C77.346 43.787 77.845 42.041 77.845 39.99C77.845 38.047 77.379 36.315 76.447 34.836C75.515 33.358 74.184 32.355 72.455 31.809C70.723 31.265 67.755 31 63.549 31H52V49H64.507C67.942 49 70.404 48.601 71.895 48.147ZM117 16.126C117 8.324 110.675 2 102.873 2H25.127C17.325 2 11 8.324 11 16.126V93.874C11 101.676 17.325 108 25.127 108H102.873C110.675 108 117 101.676 117 93.874V16.126ZM86.57 73.27C85.413 75.626 83.981 77.443 82.278 78.721C80.574 79.998 78.437 81.167 75.868 81.819C73.299 82.472 70.151 83 66.424 83H44V24H66.065C70.538 24 74.124 24.62 76.826 25.804C79.529 26.989 81.644 28.825 83.177 31.287C84.707 33.75 85.473 36.333 85.473 39.022C85.473 41.524 84.793 43.883 83.437 46.093C82.079 48.303 80.029 50.088 77.287 51.445C80.827 52.483 83.55 54.256 85.453 56.758C87.356 59.261 88.308 62.216 88.308 65.624C88.307 68.366 87.729 70.915 86.57 73.27Z" fill="#5B4282"/>
</svg>
