<svg width="128" height="128" viewBox="0 0 128 128" fill="none" xmlns="http://www.w3.org/2000/svg">
<path d="M27.854 116.354L19.811 26.1429H108.189L100.138 116.34L63.946 126.373L27.854 116.354Z" fill="#E44D26"/>
<path d="M64 118.704L93.244 110.596L100.125 33.52H64V118.704Z" fill="#F16529"/>
<path d="M64 66.978H49.359L48.349 55.647H64V44.583H36.257L36.521 47.552L39.241 78.041H64V66.978ZM64 95.711L63.951 95.724L51.63 92.396L50.842 83.573H39.735L41.285 100.945L63.949 107.237L64 107.222V95.711Z" fill="#EBEBEB"/>
<path d="M28.034 1.62695H33.656V7.18295H38.8V1.62695H44.423V18.449H38.8V12.816H33.657V18.449H28.034V1.62695ZM51.816 7.20595H46.866V1.62695H62.391V7.20595H57.439V18.449H51.816V7.20595ZM64.855 1.62695H70.717L74.324 7.53795L77.927 1.62695H83.792V18.449H78.191V10.111L74.324 16.092H74.226L70.356 10.111V18.449H64.854V1.62695H64.855ZM86.591 1.62695H92.215V12.889H100.122V18.45H86.591V1.62695Z" fill="black"/>
<path d="M63.962 66.978V78.041H77.586L76.302 92.39L63.962 95.721V107.231L86.644 100.945L86.81 99.075L89.41 69.948L89.68 66.978H86.698H63.962ZM63.962 44.583V55.647H90.687L90.908 53.16L91.413 47.552L91.678 44.583H63.962Z" fill="white"/>
</svg>
