<svg width="1440" height="332" viewBox="0 0 1440 332" fill="none" xmlns="http://www.w3.org/2000/svg">
<path d="M1434 327L1441 332L1440.5 3L0 3V163L22.5 168.5H55.5H90.5L102 163C104 163.667 108.4 165.7 110 168.5C111.6 171.3 127.333 169.667 135 168.5H162.5L173 171L185.5 168.5L199 165L217 168.5L230 172.5H244L255 168.5L258.5 172.5C259 174 261.3 177.2 266.5 178C271.7 178.8 272.333 174.667 272 172.5L279.5 165L288.5 159L300 165L319.5 168.5L335.5 165L362 154.5L381.5 146L396.5 137L413 137H440L465 131.5H469L478.5 126L494.5 123.5L507 129L533 146L555.5 159L573.5 165L587.5 168.5L598.5 182L616.5 202.5L625.5 208L636.5 215.5L644.5 222L654 235L662.5 249.5C663.667 252.333 667.2 258 672 258C676.8 258 679.333 256.333 680 255.5L690 265.5L703.5 283.5L714.5 292.5H721.5L729.5 287.5L745 274L767 263L779.5 258L786.5 249.5H796.5L811 249.5H821L836.5 235L858.5 223L876.5 213L894.5 208L908.5 210.5L923 216.5L943 220L958.5 225.5L976 235L991.5 239H1004.5L1017 235L1045 232L1069 225.5L1082 216.5L1092 206L1108.5 202H1114L1126 206L1138.5 208L1155 210.5L1166.5 208L1180 210.5L1183.5 216.5L1189 221L1196 225.5H1201.5L1208.5 221L1217 216.5L1223 221L1228 228.5L1236.5 233.5L1249 239H1256.5L1266 236.5L1273 233.5L1279 236.5L1295.5 244.5H1310.5L1325.5 248.5L1340 258L1345.5 268.5L1355 280L1364 292.5L1374 303L1379.5 314L1383 316.5H1397H1406.5L1414 320L1422.5 325L1434 327Z" fill="#010103"/>
<path d="M3 6V160.5H0V0H1440V326H1438L1437.5 6H3Z" fill="#010103"/>
</svg>
