<svg width="1440" height="1024" viewBox="0 0 1440 1024" fill="none" xmlns="http://www.w3.org/2000/svg">
<path d="M1661 647C1661 776.636 1652.64 874.997 1579.38 981C903.364 981 554.265 963.5 -69.8435 981C-143.103 874.997 -195 776.636 -195 647C-195 237.757 220.48 -94 733 -94C1245.52 -94 1661 237.757 1661 647Z" fill="url(#paint0_radial_13_88)"/>
<path d="M6 700L-1 695L-0.5 1024H1440V864L1417.5 858.5H1384.5H1349.5L1338 864C1336 863.333 1331.6 861.3 1330 858.5C1328.4 855.7 1312.67 857.333 1305 858.5H1277.5L1267 856L1254.5 858.5L1241 862L1223 858.5L1210 854.5H1196L1185 858.5L1181.5 854.5C1181 853 1178.7 849.8 1173.5 849C1168.3 848.2 1167.67 852.333 1168 854.5L1160.5 862L1151.5 868L1140 862L1120.5 858.5L1104.5 862L1078 872.5L1058.5 881L1043.5 890H1027H1000L975 895.5H971L961.5 901L945.5 903.5L933 898L907 881L884.5 868L866.5 862L852.5 858.5L841.5 845L823.5 824.5L814.5 819L803.5 811.5L795.5 805L786 792L777.5 777.5C776.333 774.667 772.8 769 768 769C763.2 769 760.667 770.667 760 771.5L750 761.5L736.5 743.5L725.5 734.5H718.5L710.5 739.5L695 753L673 764L660.5 769L653.5 777.5H643.5H629H619L603.5 792L581.5 804L563.5 814L545.5 819L531.5 816.5L517 810.5L497 807L481.5 801.5L464 792L448.5 788H435.5L423 792L395 795L371 801.5L358 810.5L348 821L331.5 825H326L314 821L301.5 819L285 816.5L273.5 819L260 816.5L256.5 810.5L251 806L244 801.5H238.5L231.5 806L223 810.5L217 806L212 798.5L203.5 793.5L191 788H183.5L174 790.5L167 793.5L161 790.5L144.5 782.5H129.5L114.5 778.5L100 769L94.5 758.5L85 747L76 734.5L66 724L60.5 713L57 710.5H43H33.5L26 707L17.5 702L6 700Z" fill="url(#paint1_radial_13_88)"/>
<defs>
<radialGradient id="paint0_radial_13_88" cx="0" cy="0" r="1" gradientUnits="userSpaceOnUse" gradientTransform="translate(733 885.5) rotate(92.2667) scale(910.212 1138.65)">
<stop stop-color="#6F58CE"/>
<stop offset="0.635417" stop-color="#284370" stop-opacity="0.8"/>
<stop offset="1" stop-color="#010103" stop-opacity="0.5"/>
</radialGradient>
<radialGradient id="paint1_radial_13_88" cx="0" cy="0" r="1" gradientUnits="userSpaceOnUse" gradientTransform="translate(755.5 436.5) rotate(93.8315) scale(546.221 1358.39)">
<stop stop-color="#293659"/>
<stop offset="1" stop-color="#010103"/>
</radialGradient>
</defs>
</svg>
