<svg width="1440" height="332" viewBox="0 0 1440 332" fill="none" xmlns="http://www.w3.org/2000/svg">
<path d="M7 5L0 0L0.5 329H1441V169L1418.5 163.5H1385.5H1350.5L1339 169C1337 168.333 1332.6 166.3 1331 163.5C1329.4 160.7 1313.67 162.333 1306 163.5H1278.5L1268 161L1255.5 163.5L1242 167L1224 163.5L1211 159.5H1197L1186 163.5L1182.5 159.5C1182 158 1179.7 154.8 1174.5 154C1169.3 153.2 1168.67 157.333 1169 159.5L1161.5 167L1152.5 173L1141 167L1121.5 163.5L1105.5 167L1079 177.5L1059.5 186L1044.5 195H1028H1001L976 200.5H972L962.5 206L946.5 208.5L934 203L908 186L885.5 173L867.5 167L853.5 163.5L842.5 150L824.5 129.5L815.5 124L804.5 116.5L796.5 110L787 97L778.5 82.5C777.333 79.6667 773.8 74 769 74C764.2 74 761.667 75.6667 761 76.5L751 66.5L737.5 48.5L726.5 39.5H719.5L711.5 44.5L696 58L674 69L661.5 74L654.5 82.5H644.5H630H620L604.5 97L582.5 109L564.5 119L546.5 124L532.5 121.5L518 115.5L498 112L482.5 106.5L465 97L449.5 93H436.5L424 97L396 100L372 106.5L359 115.5L349 126L332.5 130H327L315 126L302.5 124L286 121.5L274.5 124L261 121.5L257.5 115.5L252 111L245 106.5H239.5L232.5 111L224 115.5L218 111L213 103.5L204.5 98.5L192 93H184.5L175 95.5L168 98.5L162 95.5L145.5 87.5H130.5L115.5 83.5L101 74L95.5 63.5L86 52L77 39.5L67 29L61.5 18L58 15.5H44H34.5L27 12L18.5 7L7 5Z" fill="#010103"/>
<path d="M1438 326V171.5H1441V332L1 332V6H3L3.5 326L1438 326Z" fill="#010103"/>
</svg>
