<svg width="100" height="100" viewBox="0 0 100 100" fill="none" xmlns="http://www.w3.org/2000/svg">
<path d="M83.3894 4.84473H15.766C12.2527 4.84473 8.88324 6.24039 6.39894 8.72468C3.91462 11.209 2.51896 14.5784 2.51896 18.0918V85.7153C2.51896 89.2288 3.91462 92.5982 6.39894 95.0823C8.88324 97.5664 12.2527 98.9623 15.766 98.9623H46.5425V64.6094H34.9072V51.2094H46.5425V41.3389C46.5425 35.7447 48.0895 31.3977 51.1837 28.3094C54.2778 25.2153 58.4719 23.6624 63.7718 23.6624C69.0777 23.6624 72.5129 23.8683 74.0835 24.2565V36.1859H67.0129C64.46 36.1859 62.7188 36.7271 61.7835 37.8094C60.8541 38.8859 60.3894 40.5094 60.3894 42.6683V51.2094H73.6424L71.8777 64.6094H60.3894V98.9623H83.3894C86.9029 98.9623 90.2724 97.5664 92.7565 95.0823C95.2412 92.5982 96.6365 89.2288 96.6365 85.7153V18.0918C96.6365 14.5784 95.2412 11.209 92.7565 8.72468C90.2724 6.24039 86.9029 4.84473 83.3894 4.84473Z" fill="white"/>
</svg>
