<svg width="100" height="100" viewBox="0 0 100 100" fill="none" xmlns="http://www.w3.org/2000/svg">
<path d="M79.8237 25.4706C79.8237 26.1859 79.6825 26.8942 79.409 27.5551C79.1354 28.216 78.7337 28.8164 78.2284 29.3222C77.7225 29.8281 77.1219 30.2292 76.4607 30.503C75.8001 30.7768 75.0919 30.9177 74.3766 30.9177C73.6613 30.9177 72.9531 30.7768 72.2919 30.503C71.6313 30.2292 71.0307 29.8281 70.5248 29.3222C70.019 28.8164 69.6178 28.216 69.3443 27.5551C69.0701 26.8942 68.9296 26.1859 68.9296 25.4706C68.9296 24.026 69.5031 22.6405 70.5248 21.619C71.5466 20.5974 72.9319 20.0235 74.3766 20.0235C75.8213 20.0235 77.2066 20.5974 78.2284 21.619C79.2495 22.6405 79.8237 24.026 79.8237 25.4706ZM97.1178 50.0588V50.1294L96.806 69.8707C96.7266 76.9901 93.8631 83.796 88.829 88.8307C83.7954 93.866 76.9901 96.7307 69.8707 96.8118L50.0588 97.1177H49.9883L30.2471 96.806C23.1275 96.7265 16.3218 93.863 11.2867 88.8295C6.25155 83.7954 3.38691 76.9901 3.30588 69.8707L3 50.0588V49.9882L3.31176 30.2471C3.39124 23.1275 6.25438 16.3218 11.2884 11.2867C16.3225 6.25154 23.1275 3.38689 30.2471 3.30589L50.0588 3H50.1294L69.8707 3.31178C76.9901 3.39125 83.796 6.25436 88.8307 11.2884C93.866 16.3225 96.7307 23.1275 96.8119 30.2471L97.1178 50.0588ZM88.3531 50.0588L88.0472 30.3824C87.9919 25.5428 86.0448 20.9171 82.6231 17.4948C79.2007 14.0725 74.5748 12.1256 69.7354 12.0706L50.0588 11.7647L30.3824 12.0706C25.5428 12.1256 20.9171 14.0725 17.4948 17.4948C14.0726 20.9171 12.1256 25.5428 12.0706 30.3824L11.7647 50.0588L12.0706 69.7354C12.1256 74.5748 14.0726 79.2007 17.4948 82.623C20.9171 86.0454 25.5428 87.9918 30.3824 88.0471L50.0588 88.353L69.7354 88.0471C74.5748 87.9918 79.2007 86.0454 82.6231 82.623C86.0448 79.2007 87.9919 74.5748 88.0472 69.7354L88.3531 50.0588ZM74.2237 50.0588C74.2237 56.4677 71.6778 62.6142 67.146 67.146C62.6143 71.6777 56.4677 74.2236 50.0588 74.2236C43.65 74.2236 37.5036 71.6777 32.9718 67.146C28.44 62.6142 25.8941 56.4677 25.8941 50.0588C25.8941 43.65 28.44 37.5035 32.9718 32.9718C37.5036 28.44 43.65 25.8941 50.0588 25.8941C56.4677 25.8941 62.6143 28.44 67.146 32.9718C71.6778 37.5035 74.2237 43.65 74.2237 50.0588ZM65.459 50.0588C65.459 45.9745 63.8366 42.0574 60.9484 39.1694C58.0602 36.2813 54.1431 34.6588 50.0588 34.6588C45.9745 34.6588 42.0574 36.2813 39.1694 39.1694C36.2813 42.0574 34.6588 45.9745 34.6588 50.0588C34.6588 54.1431 36.2813 58.0601 39.1694 60.9483C42.0574 63.8365 45.9745 65.4589 50.0588 65.4589C54.1431 65.4589 58.0602 63.8365 60.9484 60.9483C63.8366 58.0601 65.459 54.1431 65.459 50.0588Z" fill="white"/>
</svg>
