<svg width="100" height="100" viewBox="0 0 100 100" fill="none" xmlns="http://www.w3.org/2000/svg">
<path d="M100 48.7122C100 75.6156 78.0233 97.4244 50.9089 97.4244C42.3011 97.4244 34.2144 95.2244 27.1789 91.3633L0 100L8.86111 73.8644C4.39111 66.5244 1.81667 57.9156 1.81667 48.7122C1.81667 21.8089 23.7956 0 50.9089 0C78.0256 0 100 21.8089 100 48.7122ZM50.9089 7.75778C28.1489 7.75778 9.63556 26.13 9.63556 48.7122C9.63556 57.6733 12.5567 65.9722 17.4978 72.7233L12.3411 87.9333L28.2022 82.8922C34.7189 87.1711 42.5256 89.6667 50.91 89.6667C73.6667 89.6667 92.1833 71.2967 92.1833 48.7144C92.1833 26.1322 73.6678 7.75778 50.9089 7.75778ZM75.6989 59.9311C75.3956 59.4344 74.5945 59.1344 73.3922 58.5378C72.1878 57.9411 66.27 55.0511 65.17 54.6544C64.0667 54.2567 63.2622 54.0567 62.4611 55.2511C61.66 56.4467 59.3533 59.1344 58.65 59.9311C57.9478 60.73 57.2467 60.83 56.0422 60.2322C54.84 59.6356 50.9633 58.3733 46.3667 54.3067C42.79 51.1422 40.3744 47.2356 39.6722 46.0389C38.9711 44.8444 39.5989 44.1989 40.2 43.6044C40.7422 43.0689 41.4044 42.21 42.0056 41.5133C42.6089 40.8156 42.8089 40.3189 43.2078 39.5211C43.6111 38.7244 43.41 38.0278 43.1078 37.4289C42.8078 36.8322 40.3989 30.9567 39.3967 28.5656C38.3944 26.1767 37.3933 26.5744 36.69 26.5744C35.9889 26.5744 35.1856 26.4744 34.3833 26.4744C33.5811 26.4744 32.2767 26.7733 31.1733 27.9678C30.0711 29.1633 26.9633 32.0522 26.9633 37.9267C26.9633 43.8022 31.2733 49.4789 31.8767 50.2744C32.4778 51.07 40.1989 63.5189 52.4322 68.3C64.6667 73.0789 64.6667 71.4844 66.8733 71.2844C69.0778 71.0856 73.9911 68.3967 74.9978 65.61C75.9978 62.8189 75.9978 60.4289 75.6989 59.9311Z" fill="white"/>
</svg>
