<svg width="300" height="300" viewBox="0 0 300 300" fill="none" xmlns="http://www.w3.org/2000/svg">
<path d="M62.8486 212.251L68.8247 204.282L77.7886 210.259C81.7727 203.287 85.7568 196.315 88.7451 188.347L78.7849 185.358L81.7732 175.398L91.7334 178.387C93.7254 170.418 94.7212 162.45 95.7175 154.482H85.7573V144.522H95.7175C95.7175 136.554 93.7254 127.589 91.7334 120.618L81.7732 123.605L78.7849 113.645L88.7451 110.657C85.7573 102.689 82.769 95.7169 77.7886 88.745L68.8247 94.7206L62.8486 86.7525L71.8131 80.7764C67.829 74.8003 62.8486 69.8199 57.8688 64.8401C37.948 86.7525 25 116.633 25 149.502C25 178.387 34.9602 205.279 50.8964 226.195C53.8842 229.183 57.8683 234.163 57.8683 234.163C62.8481 229.184 67.8285 224.203 71.8125 219.223L62.8486 212.251Z" fill="white"/>
<path d="M241.136 64.8401C236.156 69.8199 231.176 74.8003 227.192 79.7806L236.156 85.7567L230.18 94.7206L221.216 88.7445C217.232 95.7169 213.247 102.689 210.259 110.657L220.219 113.645L217.232 123.605L207.271 120.617C206.276 127.589 204.284 136.553 204.284 144.521H214.244V154.482H204.283C204.283 162.45 206.275 171.414 208.267 178.386L218.227 175.398L221.215 185.358L211.255 188.346C214.243 196.314 217.231 203.287 222.211 210.258L231.175 204.282L237.151 212.25L228.187 218.227C232.171 223.207 237.151 229.183 242.131 233.167C242.131 233.167 246.115 229.183 248.108 226.195C265.04 205.278 275 177.39 275 148.506C274.004 116.633 262.052 87.7482 241.136 64.8401Z" fill="white"/>
<path d="M212.251 230.179L206.275 222.211L214.243 217.231C209.263 209.263 205.279 201.295 202.291 192.331L192.331 194.323L189.343 184.363L198.307 181.375C196.315 173.407 194.323 163.447 194.323 154.482H184.363V144.522H194.323C194.323 135.558 196.315 125.598 198.307 117.629L189.343 114.642L192.33 104.681L201.295 107.669C204.283 98.7053 208.267 90.7371 213.247 82.769L205.278 77.7892L211.255 69.821L219.223 74.8008C224.203 68.8247 229.183 62.8486 234.164 57.8683C212.251 37.948 182.371 25 149.502 25C116.634 25 86.753 37.9474 64.8407 57.8678C69.8205 62.8476 74.8008 68.8242 79.7812 74.8003L86.7536 69.8205L92.7297 77.7886L84.7615 82.7685C89.7414 90.7366 93.7254 98.7047 96.7137 107.669L105.678 104.681L108.665 114.641L99.7015 117.629C101.694 126.593 103.686 135.557 103.686 144.522H113.646V154.482H103.686C103.686 163.446 101.694 173.406 99.7015 181.374L108.665 184.362L105.678 194.322L96.7137 191.335C93.7254 200.298 89.7414 208.267 84.7615 216.235L92.7297 221.215L86.7536 229.183L79.7812 224.203C74.8014 230.179 69.821 236.155 64.8407 241.135C86.753 262.052 116.634 274.004 149.502 274.004C182.37 274.004 212.251 261.056 234.163 241.135C229.183 236.156 224.203 230.179 219.223 225.199L212.251 230.179Z" fill="white"/>
</svg>
