<svg width="260" height="217" viewBox="0 0 260 217" fill="none" xmlns="http://www.w3.org/2000/svg">
<g clip-path="url(#clip0_20_360)">
<path d="M254.583 108.333C256.02 108.333 257.398 107.858 258.413 107.011C259.429 106.165 260 105.017 260 103.819V22.5694C259.991 16.5859 257.135 10.8494 252.058 6.61835C246.981 2.38731 240.097 0.00716741 232.917 0L27.0833 0C19.903 0.00716741 13.0193 2.38731 7.94202 6.61835C2.86478 10.8494 0.0086009 16.5859 0 22.5694L0 148.958C0.0086009 154.942 2.86478 160.678 7.94202 164.909C13.0193 169.14 19.903 171.521 27.0833 171.528H86.6667V191.682L72.8271 199.356C72.0832 199.77 71.4737 200.33 71.0531 200.988C70.6325 201.646 70.4138 202.38 70.4167 203.125V207.639C70.4167 210.033 71.558 212.329 73.5897 214.022C75.6213 215.716 78.3768 216.667 81.25 216.667H178.75C181.623 216.667 184.379 215.716 186.41 214.022C188.442 212.329 189.583 210.033 189.583 207.639V203.125C189.583 202.382 189.364 201.651 188.943 200.995C188.523 200.34 187.915 199.782 187.173 199.369L173.333 191.682V185.069C173.333 183.872 172.763 182.724 171.747 181.878C170.731 181.031 169.353 180.556 167.917 180.556C166.48 180.556 165.102 181.031 164.087 181.878C163.071 182.724 162.5 183.872 162.5 185.069V194.097C162.5 194.84 162.72 195.572 163.14 196.227C163.561 196.882 164.169 197.44 164.91 197.853L178.75 205.54V207.639H81.25V205.54L95.0896 197.866C95.8335 197.453 96.443 196.892 96.8636 196.234C97.2842 195.577 97.5028 194.842 97.5 194.097V171.528H232.917C240.097 171.521 246.981 169.14 252.058 164.909C257.135 160.678 259.991 154.942 260 148.958V126.389C260 125.192 259.429 124.044 258.413 123.197C257.398 122.351 256.02 121.875 254.583 121.875H32.5C31.0634 121.875 29.6857 122.351 28.6698 123.197C27.654 124.044 27.0833 125.192 27.0833 126.389C27.0833 127.586 27.654 128.734 28.6698 129.581C29.6857 130.427 31.0634 130.903 32.5 130.903H249.167V148.958C249.167 152.55 247.455 155.994 244.407 158.534C241.36 161.073 237.226 162.5 232.917 162.5H27.0833C22.7736 162.5 18.6403 161.073 15.5928 158.534C12.5454 155.994 10.8333 152.55 10.8333 148.958V22.5694C10.8333 18.978 12.5454 15.5336 15.5928 12.994C18.6403 10.4545 22.7736 9.02778 27.0833 9.02778H232.917C237.226 9.02778 241.36 10.4545 244.407 12.994C247.455 15.5336 249.167 18.978 249.167 22.5694V103.819C249.167 105.017 249.737 106.165 250.753 107.011C251.769 107.858 253.147 108.333 254.583 108.333Z" fill="white"/>
<path d="M106.746 32.9198C105.73 32.0735 104.353 31.5981 102.917 31.5981C101.48 31.5981 100.103 32.0735 99.0871 32.9198L66.5871 60.0031C65.5716 60.8496 65.0012 61.9975 65.0012 63.1944C65.0012 64.3913 65.5716 65.5392 66.5871 66.3857L99.0871 93.4691C100.109 94.2913 101.477 94.7463 102.897 94.736C104.317 94.7257 105.676 94.251 106.68 93.4141C107.685 92.5772 108.254 91.445 108.267 90.2615C108.279 89.078 107.733 87.9377 106.746 87.0864L78.0758 63.1944L106.746 39.3024C107.762 38.4559 108.332 37.308 108.332 36.1111C108.332 34.9141 107.762 33.7662 106.746 32.9198Z" fill="white"/>
<path d="M153.254 93.4691C154.27 94.3153 155.647 94.7907 157.083 94.7907C158.52 94.7907 159.897 94.3153 160.913 93.4691L193.413 66.3858C194.428 65.5393 194.999 64.3914 194.999 63.1944C194.999 61.9975 194.428 60.8496 193.413 60.0031L160.913 32.9198C160.413 32.4887 159.816 32.1448 159.155 31.9082C158.494 31.6716 157.783 31.5471 157.064 31.5419C156.345 31.5367 155.631 31.6509 154.966 31.8779C154.3 32.1048 153.695 32.44 153.187 32.8638C152.678 33.2877 152.276 33.7916 152.003 34.3464C151.731 34.9011 151.594 35.4955 151.6 36.0949C151.607 36.6942 151.756 37.2865 152.04 37.8372C152.324 38.3879 152.736 38.886 153.254 39.3024L181.924 63.1944L153.254 87.0864C152.238 87.9329 151.668 89.0808 151.668 90.2778C151.668 91.4747 152.238 92.6226 153.254 93.4691Z" fill="white"/>
</g>
<defs>
<clipPath id="clip0_20_360">
<rect width="260" height="216.667" fill="white"/>
</clipPath>
</defs>
</svg>
