<svg width="300" height="254" viewBox="0 0 300 254" fill="none" xmlns="http://www.w3.org/2000/svg">
<path d="M45.6417 12.9783C48.6042 12.5942 51.6125 12.6999 54.6 12.6858C119.042 12.6858 183.488 12.6858 247.929 12.6858C258.038 12.4427 268.129 16.333 274.496 22.9824C279.383 27.9615 282.104 34.403 282.079 40.8728C282.087 97.4898 282.079 154.107 282.083 210.724C282.254 218.899 277.942 227.032 270.6 232.357C264.625 236.786 256.717 239.284 248.771 239.263C182.654 239.267 116.538 239.267 50.4208 239.263C42.8583 239.288 35.3333 237.036 29.4667 233.001C21.725 227.769 17.025 219.495 17.0875 211.108C17.0792 154.48 17.0875 97.8528 17.0833 41.2251C16.975 34.7202 19.6208 28.2152 24.4875 23.1727C29.6875 17.6826 37.4042 13.9544 45.6417 12.9783ZM33.8667 27.5739C29.8625 31.1118 27.5417 35.9711 27.575 40.8728C27.5708 84.4411 27.575 128.01 27.575 171.578C27.6208 178.608 27.4792 185.645 27.6417 192.671C27.4792 198.69 27.6208 204.716 27.5708 210.742C27.4792 215.079 29.1708 219.431 32.325 222.856C36.4708 227.455 43.1583 230.337 50.0042 230.387C60.8333 230.387 71.6625 230.38 82.4917 230.39C82.5083 223.131 82.4958 215.876 82.4958 208.62C82.5042 186.885 82.5 165.154 82.5 143.419C78.2333 143.328 73.7167 143.863 69.7458 142.225C67.3292 141.305 64.9625 139.48 65 137.073C64.9958 98.5716 65.0042 60.067 64.9958 21.5658C60 21.5693 55 21.5623 50.0042 21.5693C43.9583 21.6187 38.0125 23.8633 33.8667 27.5739ZM107.504 21.5658C107.492 60.067 107.508 98.5716 107.496 137.073C107.542 139.575 105.004 141.421 102.492 142.327C98.9708 143.712 95.0167 143.384 91.25 143.419C91.25 165.154 91.2458 186.885 91.2542 208.62C91.25 215.876 91.2417 223.131 91.2583 230.387C106.204 230.359 121.158 230.44 136.104 230.344C139.313 230.429 142.525 230.316 145.733 230.277L145.854 230.034C145.8 222.899 145.854 215.759 145.829 208.62C145.838 186.889 145.833 165.154 145.833 143.419C141.663 143.324 137.262 143.849 133.346 142.327C130.833 141.425 128.313 139.585 128.333 137.094C128.329 98.5822 128.342 60.074 128.329 21.5658C121.387 21.5658 114.446 21.5658 107.504 21.5658ZM170.838 21.5658C170.825 60.067 170.842 98.5716 170.829 137.073C170.892 139.184 168.996 140.9 166.933 141.858C163.2 143.719 158.742 143.416 154.583 143.419C154.583 165.154 154.579 186.889 154.588 208.62C154.588 215.869 154.567 223.121 154.596 230.369C157.65 230.373 160.717 230.492 163.754 230.179C166.513 230.507 169.304 230.348 172.083 230.387C184.579 230.39 197.075 230.38 209.571 230.39C209.596 223.135 209.579 215.876 209.579 208.62C209.587 186.885 209.583 165.154 209.583 143.419C205.692 143.363 201.604 143.757 197.958 142.337C195.433 141.435 192.888 139.589 192.917 137.083C192.913 98.5751 192.925 60.0705 192.913 21.5658C185.554 21.5693 178.196 21.5658 170.838 21.5658ZM235.421 21.5658C235.413 59.4855 235.421 97.4052 235.417 135.325C235.379 136.562 235.608 137.89 234.892 139.028C233.771 140.942 231.438 142.087 229.125 142.743C225.65 143.736 221.933 143.335 218.333 143.419C218.333 165.154 218.329 186.885 218.338 208.62C218.333 215.876 218.325 223.131 218.338 230.387C228.758 230.38 239.179 230.397 249.6 230.376C258.817 230.207 267.429 224.763 270.342 217.38C272.046 213.554 271.513 209.42 271.592 205.424C271.546 201.171 271.683 196.918 271.525 192.668C271.687 183.418 271.546 174.15 271.592 164.893C271.592 125.198 271.592 85.5018 271.592 45.8061C271.542 42.166 271.946 38.4131 270.475 34.9105C267.725 27.4823 259.229 21.9147 250.021 21.5905C245.154 21.5341 240.288 21.5834 235.421 21.5658Z" fill="#231F20"/>
<path d="M33.8667 27.5738C38.0125 23.8632 43.9583 21.6185 50.0042 21.5692C55 21.5621 60 21.5692 64.9958 21.5657C65.0042 60.0668 64.9958 98.5715 65 137.073C64.9625 139.479 67.3292 141.305 69.7458 142.224C73.7167 143.863 78.2333 143.327 82.5 143.419C82.5 165.154 82.5042 186.885 82.4958 208.62C75.5542 208.595 68.6125 208.617 61.6667 208.609C58.3292 208.588 54.9625 208.729 51.6583 208.254C43.75 207.214 36.2833 203.623 31.45 198.197C29.8875 196.509 28.7625 194.581 27.6417 192.671C27.4792 185.645 27.6208 178.608 27.575 171.578C27.575 128.009 27.5708 84.441 27.575 40.8726C27.5417 35.971 29.8625 31.1117 33.8667 27.5738Z" fill="white"/>
<path d="M107.504 21.5657C114.446 21.5657 121.387 21.5657 128.329 21.5657C128.342 60.0739 128.329 98.582 128.333 137.094C128.312 139.585 130.833 141.425 133.346 142.327C137.262 143.849 141.662 143.324 145.833 143.419C145.833 165.154 145.837 186.889 145.829 208.62C127.637 208.599 109.446 208.602 91.2542 208.62C91.2458 186.885 91.25 165.154 91.25 143.419C95.0167 143.384 98.9708 143.711 102.492 142.327C105.004 141.421 107.542 139.575 107.496 137.073C107.508 98.5715 107.492 60.0668 107.504 21.5657Z" fill="white"/>
<path d="M170.837 21.5657C178.196 21.5657 185.554 21.5692 192.912 21.5657C192.925 60.0703 192.912 98.575 192.917 137.083C192.887 139.589 195.433 141.435 197.958 142.337C201.604 143.757 205.692 143.363 209.583 143.419C209.583 165.154 209.587 186.885 209.579 208.62C191.25 208.606 172.917 208.599 154.588 208.62C154.579 186.889 154.583 165.154 154.583 143.419C158.742 143.415 163.2 143.719 166.933 141.858C168.996 140.899 170.892 139.183 170.829 137.073C170.842 98.5715 170.825 60.0668 170.837 21.5657Z" fill="white"/>
<path d="M235.421 21.5658C240.288 21.5834 245.154 21.5341 250.021 21.5905C259.229 21.9147 267.725 27.4823 270.475 34.9105C271.946 38.4131 271.542 42.166 271.592 45.8061C271.592 85.5018 271.592 125.198 271.592 164.893C271.546 174.15 271.687 183.418 271.525 192.668C269.183 197.15 265.483 201.139 260.646 203.87C256.358 206.347 251.342 207.894 246.192 208.409C243.583 208.68 240.954 208.599 238.333 208.61C231.667 208.617 225.004 208.596 218.338 208.62C218.329 186.885 218.333 165.154 218.333 143.419C221.933 143.335 225.65 143.736 229.125 142.743C231.438 142.087 233.771 140.942 234.892 139.028C235.608 137.89 235.379 136.562 235.417 135.325C235.421 97.4052 235.413 59.4855 235.421 21.5658Z" fill="white"/>
<path d="M27.6417 192.671C28.7625 194.581 29.8875 196.509 31.45 198.197C36.2833 203.623 43.75 207.214 51.6583 208.254C54.9625 208.729 58.3292 208.588 61.6667 208.61C68.6125 208.617 75.5542 208.595 82.4958 208.62C82.4958 215.876 82.5083 223.131 82.4917 230.39C71.6625 230.38 60.8333 230.387 50.0042 230.387C43.1583 230.337 36.4708 227.455 32.325 222.856C29.1708 219.431 27.4792 215.079 27.5708 210.741C27.6208 204.716 27.4792 198.69 27.6417 192.671Z" fill="#BCBDBF"/>
<path d="M260.646 203.87C265.483 201.139 269.183 197.15 271.525 192.668C271.683 196.917 271.546 201.171 271.592 205.424C271.512 209.42 272.046 213.553 270.342 217.38C267.429 224.763 258.817 230.207 249.6 230.376C239.179 230.397 228.758 230.38 218.337 230.387C218.325 223.131 218.333 215.876 218.337 208.62C225.004 208.595 231.667 208.616 238.333 208.609C240.954 208.599 243.583 208.68 246.192 208.409C251.342 207.894 256.358 206.347 260.646 203.87Z" fill="#BCBDBF"/>
<path d="M91.2542 208.62C109.446 208.602 127.637 208.599 145.829 208.62C145.854 215.759 145.8 222.898 145.854 230.034C144.142 230.031 142.425 230.006 140.717 229.883C139.146 229.724 137.65 230.242 136.104 230.344C121.158 230.439 106.204 230.358 91.2583 230.387C91.2417 223.131 91.25 215.876 91.2542 208.62Z" fill="#BCBDBF"/>
<path d="M154.588 208.62C172.917 208.599 191.25 208.606 209.579 208.62C209.579 215.876 209.596 223.135 209.571 230.39C197.075 230.38 184.579 230.39 172.083 230.387C169.304 230.348 166.513 230.506 163.754 230.179C160.717 230.492 157.65 230.372 154.596 230.369C154.567 223.12 154.588 215.869 154.588 208.62Z" fill="#BCBDBF"/>
</svg>
